<svg width="127" height="121" viewBox="0 0 127 121" fill="none" xmlns="http://www.w3.org/2000/svg">
<path d="M104.121 50.0049L96.2183 14.4506C95.6477 11.8836 92.8263 10.5073 90.434 11.6292L29.4214 40.2411L24.7132 33.9911C23.5398 32.4333 21.4253 31.9109 19.6543 32.7414L3.72803 40.2101C1.66907 41.1756 0.787561 43.6171 1.75909 45.6634L2.93182 48.1335C3.90336 50.1798 6.35999 51.0558 8.41895 50.0903L19.2742 44.9997L55.3584 92.9014C53.4562 95.6177 53.0253 99.2403 54.5483 102.448C56.8152 107.223 62.5474 109.267 67.3516 107.014C72.1558 104.761 74.2126 99.064 71.9457 94.2894C70.7969 91.8697 68.7575 90.1532 66.4006 89.3398L98.966 74.0682C98.0993 76.3933 98.1358 79.0491 99.2846 81.4688C101.552 86.2434 107.284 88.2876 112.088 86.0347C116.892 83.7818 118.949 78.0848 116.682 73.3102C115.057 69.8874 111.651 67.8683 108.082 67.8292L107.16 63.6796C106.589 61.1125 103.768 59.7363 101.376 60.8581L59.6811 80.4109L56.319 75.9475L101.855 54.5936C103.595 53.7773 104.536 51.8726 104.121 50.0049Z" fill="#292C6D"/>
</svg>
